<?xml version="1.0" standalone="no"?>
<!DOCTYPE svg PUBLIC "-//W3C//DTD SVG 20010904//EN"
 "http://www.w3.org/TR/2001/REC-SVG-20010904/DTD/svg10.dtd">
<svg version="1.0" xmlns="http://www.w3.org/2000/svg"
 width="1280.000000pt" height="1280.000000pt" viewBox="0 0 1280.000000 1280.000000"
 preserveAspectRatio="xMidYMid meet">
<metadata>
Created by potrace 1.11, written by Peter Selinger 2001-2013
</metadata>
<g transform="translate(0.000000,1280.000000) scale(0.100000,-0.100000)"
fill="#000000" stroke="none">
<path d="M4960 12791 c0 -5 -15 -12 -32 -16 -18 -4 -51 -13 -73 -20 -22 -7
-68 -21 -102 -31 -34 -10 -72 -27 -85 -39 -13 -12 -46 -34 -73 -50 -68 -39
-237 -214 -271 -281 -7 -12 -15 -36 -19 -53 -4 -17 -10 -31 -14 -31 -5 0 -16
-19 -25 -42 -10 -24 -24 -56 -32 -72 -25 -50 -39 -258 -26 -393 12 -121 28
-179 69 -245 13 -21 23 -40 23 -43 0 -25 57 -121 93 -158 25 -25 48 -54 52
-66 3 -11 22 -30 42 -42 19 -12 56 -39 82 -61 63 -53 60 -51 111 -72 25 -10
72 -31 105 -47 33 -16 69 -29 80 -29 11 -1 31 -7 45 -15 19 -11 65 -14 186
-15 123 0 164 -3 173 -14 6 -7 14 -35 17 -62 4 -27 11 -58 17 -69 6 -11 14
-36 18 -55 4 -19 17 -62 29 -95 19 -56 41 -147 60 -255 4 -25 24 -90 44 -145
19 -55 42 -138 51 -185 25 -133 51 -225 90 -315 7 -16 19 -64 25 -105 19 -115
27 -152 40 -190 7 -19 18 -51 25 -70 24 -67 45 -146 64 -245 11 -55 35 -145
55 -200 19 -56 44 -150 56 -210 22 -120 35 -165 55 -207 10 -20 11 -29 2 -36
-31 -25 -110 -57 -191 -79 -50 -12 -92 -26 -95 -31 -10 -13 -60 -42 -72 -42
-7 0 -20 -6 -28 -14 -9 -7 -38 -21 -66 -31 -27 -10 -63 -28 -80 -40 -51 -36
-130 -82 -156 -90 -13 -4 -39 -23 -57 -43 -18 -19 -55 -46 -82 -59 -28 -14
-50 -29 -50 -33 0 -5 -21 -25 -47 -45 -100 -76 -343 -305 -343 -323 0 -4 -25
-34 -55 -67 -30 -33 -55 -65 -55 -72 0 -7 -19 -31 -42 -55 -24 -24 -53 -63
-65 -88 -13 -25 -45 -76 -72 -115 -27 -38 -52 -83 -55 -100 -3 -16 -16 -41
-29 -55 -29 -33 -74 -126 -86 -180 -5 -24 -13 -46 -18 -49 -22 -16 -67 -135
-89 -231 -9 -41 -25 -104 -36 -140 -46 -152 -59 -224 -73 -394 -8 -98 -18
-183 -23 -188 -4 -4 -140 -7 -301 -6 l-293 3 -22 40 c-35 65 -135 160 -182
173 -49 14 -166 18 -214 7 -78 -17 -158 -88 -207 -185 -24 -47 -28 -66 -27
-138 0 -76 3 -86 32 -127 18 -25 32 -50 32 -56 0 -24 34 -59 73 -74 23 -9 49
-22 57 -29 25 -21 107 -39 158 -34 80 8 179 64 235 133 27 33 53 70 58 83 l9
22 294 0 c162 0 297 -4 300 -8 3 -5 10 -69 16 -143 17 -199 41 -352 61 -384 4
-5 10 -26 14 -45 4 -19 13 -55 20 -80 7 -25 19 -72 26 -105 11 -53 31 -106 58
-155 26 -49 34 -68 52 -124 11 -33 30 -77 43 -96 13 -20 42 -75 65 -123 23
-49 57 -105 76 -126 18 -20 37 -49 40 -64 4 -14 24 -46 44 -69 21 -24 57 -70
81 -103 23 -33 60 -78 82 -100 21 -22 44 -51 51 -65 7 -14 27 -34 44 -45 18
-11 35 -28 39 -38 4 -14 -177 -201 -829 -853 l-835 -835 -33 14 c-19 8 -49 27
-68 42 -43 37 -158 95 -187 95 -13 0 -25 4 -28 9 -6 9 -108 42 -186 60 -139
32 -331 16 -470 -39 -30 -12 -77 -28 -105 -37 -74 -22 -239 -137 -327 -226
-63 -64 -148 -181 -148 -204 0 -3 -13 -22 -28 -42 -18 -22 -36 -64 -47 -111
-10 -41 -24 -89 -31 -107 -8 -17 -14 -42 -14 -56 0 -13 -7 -42 -16 -63 -20
-47 -17 -255 4 -276 6 -6 12 -25 12 -41 0 -16 6 -43 14 -60 7 -18 21 -68 32
-111 14 -61 28 -93 61 -138 24 -32 43 -64 43 -72 0 -17 125 -160 184 -211 26
-22 66 -50 89 -63 22 -12 61 -38 85 -57 25 -19 60 -37 79 -41 18 -3 36 -10 39
-15 3 -5 20 -9 37 -9 18 0 44 -6 59 -14 14 -8 45 -17 67 -21 23 -4 43 -11 47
-16 7 -11 305 -12 336 0 30 11 151 47 208 61 52 13 60 17 175 90 48 30 110 78
139 106 28 28 56 53 61 55 6 2 24 24 41 49 17 25 51 76 77 113 26 38 54 92 64
120 9 29 19 57 23 62 4 6 17 44 29 85 12 41 26 89 31 106 16 50 12 288 -6 358
-18 73 -40 139 -53 163 -6 10 -17 44 -27 75 -9 32 -23 63 -30 69 -8 6 -14 17
-14 24 0 6 -10 20 -21 31 -26 23 -69 89 -69 105 0 10 87 101 381 398 19 18
261 261 539 538 783 783 742 743 765 743 7 0 29 -13 47 -30 18 -16 37 -30 43
-30 5 0 28 -16 50 -36 50 -45 117 -91 147 -103 13 -5 49 -32 81 -59 32 -27 84
-60 115 -71 31 -12 84 -39 117 -59 33 -21 87 -46 120 -56 33 -10 89 -32 125
-48 115 -53 124 -56 165 -62 82 -13 170 -31 182 -39 6 -4 33 -12 60 -17 26 -6
82 -18 123 -26 41 -9 118 -20 170 -24 122 -10 441 -11 550 0 112 10 316 51
372 74 23 10 35 -17 49 -106 7 -40 18 -87 25 -105 8 -17 14 -36 14 -42 0 -6
12 -45 26 -88 25 -77 35 -125 55 -253 5 -35 14 -69 19 -74 6 -6 10 -18 10 -28
0 -10 13 -57 29 -105 15 -49 36 -133 46 -188 18 -103 27 -137 69 -265 23 -68
38 -139 67 -313 l9 -57 -55 -58 c-93 -95 -100 -114 -100 -272 0 -112 3 -141
19 -170 24 -45 103 -120 153 -143 21 -10 51 -25 66 -33 17 -8 59 -14 100 -14
65 0 80 4 163 45 77 39 97 54 122 93 17 26 41 59 54 75 20 25 22 38 22 145 0
126 -5 142 -66 214 -13 14 -31 40 -40 57 -21 38 -85 67 -197 89 -19 4 -37 14
-42 22 -18 37 -39 89 -39 102 0 7 -12 45 -25 83 -14 39 -34 125 -45 193 -12
68 -25 131 -30 140 -5 9 -19 51 -30 92 -12 41 -25 86 -30 100 -4 14 -16 70
-25 125 -9 55 -36 161 -60 235 -23 74 -50 182 -60 240 -9 58 -30 144 -46 192
-16 48 -26 93 -23 101 3 8 33 26 67 41 34 15 76 34 92 41 17 8 53 21 80 29 52
15 139 58 165 82 9 7 35 20 59 29 39 13 109 57 216 135 22 16 45 29 51 30 6 0
32 20 57 45 26 25 54 45 62 45 9 0 36 20 60 45 25 24 56 52 70 61 14 9 25 21
25 27 0 6 -131 140 -291 299 -223 221 -296 288 -315 288 -31 0 -69 -24 -112
-72 -19 -21 -39 -38 -45 -38 -12 0 -133 -75 -162 -100 -11 -10 -38 -23 -60
-30 -45 -14 -175 -76 -190 -91 -5 -5 -19 -9 -31 -9 -18 0 -23 7 -29 43 -4 23
-11 47 -16 52 -4 6 -12 38 -18 70 -33 193 -25 164 -111 440 -16 50 -36 135
-45 190 -10 55 -22 111 -27 125 -25 60 -44 170 -29 170 6 0 28 15 48 33 21 18
52 39 70 46 31 13 93 72 93 90 0 5 12 17 28 27 36 24 45 36 87 124 20 41 50
104 68 140 l32 65 0 190 c-1 198 -1 202 -52 300 -17 34 -29 58 -64 128 -31 63
-181 216 -239 245 -25 12 -54 28 -65 34 -131 85 -179 98 -358 102 -82 2 -150
6 -153 8 -4 5 -20 79 -34 158 -5 25 -27 98 -49 163 -23 64 -41 125 -41 135 0
41 -56 258 -72 277 -4 5 -8 18 -8 28 0 10 -7 33 -14 50 -29 62 -55 232 -39
248 32 32 503 41 719 14 151 -19 193 -32 345 -104 36 -17 74 -31 83 -31 9 0
24 -4 34 -9 9 -6 38 -20 63 -32 26 -12 58 -31 71 -44 13 -12 35 -25 49 -28 14
-4 41 -18 60 -31 19 -14 50 -36 70 -50 20 -13 42 -30 50 -38 57 -53 111 -72
122 -44 3 8 24 25 45 37 22 13 48 38 58 57 10 18 36 44 58 57 23 13 50 40 60
60 11 21 39 48 63 62 24 14 43 30 43 36 0 20 50 75 93 102 24 15 53 44 64 64
12 20 37 46 57 56 49 27 53 45 17 75 -17 14 -59 49 -93 79 -35 29 -72 57 -83
61 -11 5 -60 38 -109 74 -49 36 -97 66 -106 66 -10 0 -33 14 -51 30 -32 29
-148 90 -169 90 -6 0 -29 12 -53 27 -69 45 -162 83 -200 83 -10 0 -34 9 -54
20 -21 11 -43 20 -48 20 -6 0 -30 9 -54 21 -44 21 -144 43 -266 59 -38 5 -88
14 -110 19 -187 47 -522 56 -761 22 -78 -11 -153 -25 -166 -30 -13 -5 -48 -10
-78 -12 l-53 -4 -17 45 c-31 82 -42 115 -51 153 -5 21 -13 45 -18 55 -19 35
-39 110 -56 202 -10 52 -23 111 -30 130 -7 19 -21 62 -31 95 -10 33 -21 65
-25 70 -7 10 -31 129 -44 215 -4 25 -10 50 -14 55 -4 6 -15 37 -25 70 -10 33
-24 78 -32 100 -14 42 -29 114 -44 203 -5 29 -13 58 -18 65 -5 7 -12 26 -15
42 -4 28 -12 50 -43 135 -7 19 -20 80 -30 135 -9 55 -22 114 -29 130 -32 76
-59 168 -77 265 -11 58 -31 139 -45 180 -40 122 -40 122 4 144 21 10 45 22 53
26 9 4 30 11 48 15 18 3 37 15 43 26 6 11 35 36 64 55 30 19 59 43 65 53 5 11
35 44 65 75 30 30 55 63 55 74 0 10 11 29 25 42 35 33 74 119 90 198 7 37 18
82 25 100 15 40 9 344 -7 382 -6 14 -19 60 -29 103 -9 42 -23 82 -31 88 -7 6
-13 16 -13 21 0 5 -16 30 -35 55 -19 25 -40 60 -46 78 -8 20 -27 42 -50 57
-21 12 -47 40 -59 61 -13 22 -35 43 -56 52 -18 7 -51 27 -71 44 -51 40 -135
81 -181 88 -20 3 -42 10 -48 14 -6 5 -34 13 -62 20 -29 6 -52 15 -52 20 0 5
-68 9 -155 9 -88 0 -155 -4 -155 -9z m1207 -5176 c8 -22 19 -58 24 -79 5 -22
13 -44 17 -50 7 -11 26 -104 38 -181 3 -22 11 -56 18 -75 46 -124 72 -214 86
-300 7 -41 30 -126 51 -189 29 -86 36 -118 28 -132 -5 -11 -15 -19 -22 -19 -7
0 -28 -13 -47 -28 -19 -15 -54 -36 -77 -46 -23 -10 -55 -36 -72 -56 -17 -21
-39 -41 -49 -44 -9 -3 -33 -29 -52 -58 -18 -29 -44 -61 -56 -71 -36 -28 -94
-160 -94 -213 0 -13 -6 -38 -14 -56 -8 -18 -17 -44 -20 -58 l-5 -25 -543 3
c-433 2 -545 5 -556 15 -10 11 -11 28 -2 88 15 104 40 218 56 256 8 17 14 38
14 46 0 8 7 28 15 43 8 16 15 37 15 47 0 26 29 122 46 155 8 15 14 33 14 40 0
6 3 12 8 12 9 0 37 54 48 90 4 14 18 42 30 62 13 21 24 41 24 46 0 5 13 21 30
37 16 16 37 47 46 70 9 24 29 52 45 64 16 12 40 38 53 59 13 20 59 72 103 114
43 43 98 97 123 122 25 24 59 50 75 57 17 7 50 32 73 56 24 24 52 43 62 43 10
0 23 7 30 15 7 8 17 15 22 15 6 0 41 20 78 45 37 25 75 45 84 45 9 0 24 4 34
9 9 5 37 17 62 26 25 9 56 23 70 30 44 24 70 15 87 -30z m-231 -1900 c8 -22
19 -62 24 -90 21 -107 37 -145 86 -207 86 -108 114 -146 114 -153 0 -4 -172
-179 -383 -390 -269 -268 -387 -380 -398 -376 -18 7 -89 85 -89 98 0 5 -14 22
-31 39 -38 35 -100 119 -116 156 -7 15 -28 45 -48 66 -19 22 -35 46 -35 53 0
15 -84 185 -102 207 -6 7 -15 31 -20 55 -5 23 -13 63 -19 89 -5 26 -16 60 -24
75 -8 15 -15 36 -15 46 0 9 -4 25 -9 35 -27 49 -66 309 -49 329 8 11 119 13
555 11 l545 -3 14 -40z m415 -584 c13 -10 53 -26 89 -35 36 -10 81 -22 100
-27 58 -18 210 -27 290 -18 69 8 76 7 92 -11 9 -11 19 -44 23 -72 4 -29 24
-105 45 -168 21 -63 45 -160 55 -215 19 -112 40 -194 86 -327 6 -18 15 -53 19
-78 4 -25 13 -73 21 -108 16 -75 10 -84 -66 -102 -203 -47 -415 -59 -590 -31
-201 32 -474 112 -565 165 -14 8 -53 24 -87 36 -34 12 -81 38 -104 58 -23 20
-63 46 -88 58 -25 13 -68 43 -96 67 l-50 45 103 101 c56 56 102 104 102 107 0
7 177 184 184 184 10 0 46 39 46 49 0 5 25 31 57 58 31 26 109 101 173 166 65
64 122 117 128 117 5 0 20 -8 33 -19z m-3781 -3060 c59 -16 116 -39 220 -89
46 -22 200 -177 222 -222 99 -211 112 -254 106 -378 -5 -104 -27 -185 -65
-242 -13 -19 -23 -42 -23 -50 0 -25 -65 -114 -132 -179 -34 -34 -65 -61 -69
-61 -4 0 -14 -6 -21 -13 -15 -15 -77 -47 -91 -47 -5 0 -23 -6 -40 -14 -80 -35
-146 -49 -237 -50 -100 -1 -136 7 -260 55 -41 16 -79 29 -85 29 -5 0 -32 21
-58 45 -26 25 -52 45 -57 45 -4 0 -19 14 -32 31 -13 17 -42 52 -65 78 -33 37
-50 71 -84 171 -38 112 -43 135 -43 220 -1 90 9 146 38 215 7 17 21 56 31 88
17 51 32 73 124 166 67 69 119 112 141 120 19 7 57 24 85 38 114 61 270 78
395 44z"/>
<path d="M9318 8032 c-12 -21 -30 -45 -40 -55 -24 -23 -23 -64 1 -77 23 -12
195 -10 213 2 10 6 5 16 -17 36 -16 15 -46 49 -65 74 -46 62 -64 65 -92 20z"/>
<path d="M9114 7830 c-11 -4 -27 -22 -34 -39 -8 -19 -30 -42 -56 -57 -58 -34
-95 -107 -89 -178 2 -27 10 -53 17 -57 15 -10 588 -12 612 -3 14 5 16 30 16
169 0 139 -2 164 -16 169 -24 9 -426 6 -450 -4z"/>
<path d="M9667 7673 c-4 -3 -7 -41 -7 -83 0 -92 8 -102 77 -98 42 3 48 6 51
27 3 17 -8 35 -37 65 -22 22 -44 53 -50 69 -10 27 -21 33 -34 20z"/>
<path d="M8840 7526 c0 -8 -6 -17 -12 -19 -8 -3 -6 -6 5 -6 11 -1 17 6 17 19
0 11 -2 20 -5 20 -3 0 -5 -6 -5 -14z"/>
<path d="M8748 7433 c-15 -4 -42 -26 -113 -92 -62 -59 -95 -110 -95 -149 0
-77 -24 -72 325 -72 276 0 314 2 319 16 3 9 6 75 6 149 0 101 -3 135 -14 144
-10 8 -73 11 -213 10 -109 -1 -206 -4 -215 -6z"/>
<path d="M9270 7426 c-7 -9 -9 -113 -8 -322 l3 -309 155 0 155 0 3 316 2 317
-42 6 c-78 11 -256 6 -268 -8z"/>
<path d="M9683 7430 c-22 -9 -23 -14 -23 -148 0 -94 4 -142 12 -150 8 -8 59
-12 165 -12 176 0 174 -1 127 87 -14 26 -34 70 -45 96 -11 27 -32 65 -46 85
-15 21 -28 39 -29 41 -6 8 -141 9 -161 1z"/>
<path d="M8420 7129 c-25 -16 -55 -46 -67 -66 -12 -19 -36 -43 -54 -51 -17 -9
-43 -35 -57 -58 -14 -22 -43 -52 -64 -65 -35 -21 -38 -28 -36 -59 l3 -35 168
-3 167 -2 1 82 c2 265 1 288 -8 287 -5 0 -28 -14 -53 -30z"/>
<path d="M8550 7031 c-11 -21 -15 -587 -4 -615 5 -14 28 -16 148 -16 97 0 146
4 154 12 9 9 12 93 12 315 0 289 -1 303 -19 313 -11 5 -78 10 -150 10 -119 0
-131 -2 -141 -19z"/>
<path d="M8953 7042 c-14 -9 -26 -221 -14 -240 5 -9 41 -12 127 -10 l119 3 3
114 c2 75 -1 118 -9 127 -8 10 -38 14 -113 14 -55 0 -106 -4 -113 -8z"/>
<path d="M9671 7031 c-7 -12 -11 -128 -11 -314 0 -239 3 -297 14 -306 9 -8 57
-11 147 -9 l134 3 0 320 0 320 -137 3 c-127 2 -138 1 -147 -17z"/>
<path d="M10038 6888 c-2 -40 0 -79 5 -85 5 -7 27 -13 49 -13 38 0 40 1 34 26
-12 47 -61 144 -73 144 -7 0 -13 -26 -15 -72z"/>
<path d="M7997 6697 c-12 -13 -37 -32 -54 -41 -32 -16 -63 -61 -63 -90 0 -8
19 -35 43 -59 23 -24 54 -58 69 -76 l27 -31 227 2 228 3 5 25 c3 14 4 84 1
155 l-5 130 -228 3 -228 2 -22 -23z"/>
<path d="M8949 6704 c-15 -18 -20 -256 -6 -286 7 -17 32 -18 307 -18 164 0
305 3 314 6 24 9 24 299 0 308 -9 3 -147 6 -309 6 -255 0 -294 -2 -306 -16z"/>
<path d="M10050 6705 c-8 -10 -13 -58 -14 -143 -2 -161 -2 -162 106 -162 92 0
90 -2 57 113 -12 39 -26 97 -31 127 -6 30 -17 61 -26 68 -22 17 -77 15 -92 -3z"/>
<path d="M8152 6321 c-17 -10 -11 -266 8 -388 9 -59 10 -104 3 -158 -5 -41 -7
-78 -4 -80 2 -3 75 -5 162 -5 173 0 166 -3 163 68 -1 23 -2 161 -3 307 l-1
265 -157 0 c-87 0 -164 -4 -171 -9z"/>
<path d="M8547 6323 c-11 -10 -8 -272 3 -294 10 -18 24 -19 314 -19 247 0 306
3 315 14 8 9 11 60 9 157 l-3 144 -316 3 c-173 1 -318 -1 -322 -5z"/>
<path d="M9272 6322 c-9 -7 -12 -77 -10 -318 l3 -309 155 0 155 0 3 309 c2
241 -1 311 -10 318 -7 4 -74 8 -148 8 -74 0 -141 -4 -148 -8z"/>
<path d="M9673 6323 c-19 -7 -18 -286 1 -302 9 -8 96 -11 297 -9 l284 3 0 141
c0 105 -4 145 -14 157 -12 15 -44 17 -285 16 -149 0 -277 -3 -283 -6z"/>
<path d="M8052 6309 c2 -6 8 -10 13 -10 5 0 11 4 13 10 2 6 -4 11 -13 11 -9 0
-15 -5 -13 -11z"/>
<path d="M8546 5924 c-3 -9 -6 -145 -6 -304 0 -159 3 -295 6 -304 9 -24 299
-24 308 0 11 28 7 584 -4 605 -10 17 -23 19 -154 19 -122 0 -145 -2 -150 -16z"/>
<path d="M8945 5930 c-3 -5 -8 -57 -10 -114 -2 -78 0 -108 10 -116 8 -7 55
-10 126 -8 l114 3 3 100 c4 154 12 145 -123 145 -63 0 -117 -4 -120 -10z"/>
<path d="M9672 5928 c-9 -9 -12 -91 -12 -308 0 -217 3 -299 12 -308 8 -8 56
-12 150 -12 l138 0 0 320 0 320 -138 0 c-94 0 -142 -4 -150 -12z"/>
<path d="M10045 5918 c-3 -13 -5 -68 -3 -123 l3 -100 110 0 110 0 3 100 c4
153 11 145 -113 145 -100 0 -105 -1 -110 -22z"/>
<path d="M8129 5573 c-6 -16 -14 -49 -18 -76 -5 -26 -15 -55 -23 -65 -28 -32
-69 -115 -61 -123 8 -8 441 -15 448 -7 6 6 7 50 6 176 l-1 122 -170 0 -170 0
-11 -27z"/>
<path d="M8940 5583 c-3 -180 -1 -266 7 -274 5 -5 133 -8 319 -7 l309 3 3 148
3 147 -321 0 c-298 0 -320 -1 -320 -17z"/>
<path d="M10044 5587 c-2 -7 -3 -74 -2 -148 l3 -134 65 -5 c36 -3 75 -4 88 -2
35 5 52 61 59 189 l6 113 -107 0 c-78 0 -108 -3 -112 -13z"/>
<path d="M7931 5199 c-25 -20 -51 -63 -51 -81 0 -15 171 -188 186 -188 18 0
20 24 14 160 l-5 125 -60 2 c-48 2 -65 -1 -84 -18z"/>
<path d="M8147 5213 c-4 -3 -7 -87 -7 -186 l0 -179 132 -134 c131 -132 174
-162 201 -135 7 7 10 63 9 158 0 82 -1 223 -2 316 l0 167 -163 0 c-90 0 -167
-3 -170 -7z"/>
<path d="M8545 5188 c-3 -18 -5 -89 -3 -158 l3 -125 320 0 320 0 3 135 c1 74
0 145 -3 158 l-5 22 -315 0 -314 0 -6 -32z"/>
<path d="M9270 5201 c-15 -29 -14 -603 2 -619 14 -14 275 -17 296 -4 9 7 12
78 10 323 l-3 314 -147 3 c-137 2 -148 1 -158 -17z"/>
<path d="M9672 5208 c-8 -8 -12 -56 -12 -155 0 -140 0 -143 23 -148 12 -3 118
-4 236 -3 l215 3 18 85 c11 47 26 108 34 137 28 94 44 88 -246 91 -191 2 -259
-1 -268 -10z"/>
<path d="M8547 4843 c-4 -3 -7 -94 -7 -202 l0 -195 135 -134 c105 -105 139
-133 157 -130 l23 3 3 320 c2 292 1 321 -15 333 -18 13 -284 18 -296 5z"/>
<path d="M8950 4841 c-12 -7 -15 -33 -15 -130 0 -97 3 -124 15 -131 22 -14
213 -13 228 2 8 8 12 52 12 134 0 102 -3 123 -16 128 -24 9 -207 7 -224 -3z"/>
<path d="M9672 4842 c-9 -7 -12 -80 -10 -333 l3 -324 49 -3 c67 -4 93 4 101
31 4 12 17 33 30 47 19 21 42 66 106 205 5 11 8 101 7 200 l-3 180 -135 3
c-74 1 -141 -2 -148 -6z"/>
<path d="M10046 4837 c-15 -11 -17 -21 -11 -59 9 -58 27 -55 55 10 16 36 18
47 8 54 -18 11 -32 10 -52 -5z"/>
<path d="M8953 4492 c-15 -9 -21 -288 -6 -303 6 -6 129 -8 319 -7 l309 3 3
151 c2 150 2 152 -20 158 -33 8 -591 7 -605 -2z"/>
<path d="M8887 4112 c-3 -4 59 -73 138 -152 102 -102 147 -142 155 -134 7 7
10 61 8 150 l-3 139 -147 3 c-80 1 -149 -1 -151 -6z"/>
<path d="M9267 4114 c-4 -4 -7 -92 -7 -196 l0 -189 38 -41 c33 -34 43 -40 65
-34 25 6 77 52 77 68 0 11 41 51 77 77 54 37 64 72 61 202 l-3 114 -151 3
c-82 1 -153 -1 -157 -4z"/>
<path d="M9667 4113 c-4 -3 -7 -26 -7 -50 0 -34 4 -43 18 -43 19 0 66 75 57
90 -7 11 -58 14 -68 3z"/>
</g>
</svg>
